<svg width="89" height="86" viewBox="0 0 89 86" fill="none" xmlns="http://www.w3.org/2000/svg">
<path fill-rule="evenodd" clip-rule="evenodd" d="M14.2681 8.4853V3.10742L44.4729 26.1474L71.2307 3.0512L74.7656 0V4.66963V52.5748L70.4897 49.2718V9.33926L45.9531 30.5182L44.6394 31.6522L43.2595 30.5997L14.2681 8.4853Z" fill="white"/>
<path fill-rule="evenodd" clip-rule="evenodd" d="M74.8412 60.5782L74.8412 65.956L44.6364 42.9161L17.8787 66.0123L14.3438 69.0635L14.3437 64.3938L14.3437 16.4887L18.6197 19.7917L18.6197 59.7242L43.1563 38.5453L44.47 37.4113L45.8499 38.4638L74.8412 60.5782Z" fill="white"/>
<path d="M0.656819 74.5101H5.46281V76.1121H2.41902V79.0758H4.83803V80.6778H2.41902V84.1221H5.46281V85.7241H0.656819V74.5101ZM7.27757 74.5101H9.48833L11.2025 81.2225H11.2345V74.5101H12.8045V85.7241H10.9942L8.87957 77.5379H8.84753V85.7241H7.27757V74.5101ZM16.2929 76.1121H14.4506V74.5101H19.8974V76.1121H18.0551V85.7241H16.2929V76.1121ZM21.5516 74.5101H26.3576V76.1121H23.3138V79.0758H25.7328V80.6778H23.3138V84.1221H26.3576V85.7241H21.5516V74.5101ZM28.1724 74.5101H30.7836C31.6914 74.5101 32.3536 74.7237 32.7701 75.1509C33.1866 75.5675 33.3949 76.2136 33.3949 77.0894V77.7782C33.3949 78.9423 33.0104 79.6793 32.2414 79.989V80.021C32.6686 80.1492 32.9677 80.4108 33.1386 80.806C33.3201 81.2012 33.4109 81.7298 33.4109 82.392V84.3624C33.4109 84.6828 33.4216 84.9445 33.4429 85.1474C33.4643 85.3396 33.5177 85.5319 33.6031 85.7241H31.8089C31.7448 85.5426 31.7021 85.3717 31.6807 85.2115C31.6594 85.0513 31.6487 84.7629 31.6487 84.3464V82.2958C31.6487 81.7832 31.5633 81.4254 31.3924 81.2225C31.2322 81.0196 30.9492 80.9181 30.5433 80.9181H29.9346V85.7241H28.1724V74.5101ZM30.5754 79.3161C30.9278 79.3161 31.1895 79.2254 31.3603 79.0438C31.5419 78.8622 31.6327 78.5579 31.6327 78.1307V77.2656C31.6327 76.8597 31.5579 76.566 31.4084 76.3845C31.2696 76.2029 31.0453 76.1121 30.7356 76.1121H29.9346V79.3161H30.5754ZM36.781 76.1121H34.9387V74.5101H40.3855V76.1121H38.5432V85.7241H36.781V76.1121ZM42.666 74.5101H45.053L46.8793 85.7241H45.1171L44.7967 83.4973V83.5294H42.7942L42.4738 85.7241H40.8398L42.666 74.5101ZM44.5884 82.0075L43.8035 76.4646H43.7714L43.0025 82.0075H44.5884ZM48.5352 74.5101H50.2974V85.7241H48.5352V74.5101ZM52.4182 74.5101H54.629L56.3431 81.2225H56.3751V74.5101H57.9451V85.7241H56.1348L54.0202 77.5379H53.9882V85.7241H52.4182V74.5101ZM60.0558 74.5101H62.571L63.6924 82.5361H63.7244L64.8458 74.5101H67.361V85.7241H65.6949V77.2335H65.6628L64.3812 85.7241H62.9074L61.6258 77.2335H61.5938V85.7241H60.0558V74.5101ZM69.477 74.5101H74.283V76.1121H71.2392V79.0758H73.6582V80.6778H71.2392V84.1221H74.283V85.7241H69.477V74.5101ZM76.0977 74.5101H78.3085L80.0226 81.2225H80.0546V74.5101H81.6246V85.7241H79.8143L77.6997 77.5379H77.6677V85.7241H76.0977V74.5101ZM85.1131 76.1121H83.2708V74.5101H88.7176V76.1121H86.8753V85.7241H85.1131V76.1121Z" fill="white"/>
</svg>
